<?xml version="1.0" encoding="UTF-8" standalone="no"?>
<svg
   xmlns:dc="http://purl.org/dc/elements/1.1/"
   xmlns:cc="http://creativecommons.org/ns#"
   xmlns:rdf="http://www.w3.org/1999/02/22-rdf-syntax-ns#"
   xmlns:svg="http://www.w3.org/2000/svg"
   xmlns="http://www.w3.org/2000/svg"
   xmlns:sodipodi="http://sodipodi.sourceforge.net/DTD/sodipodi-0.dtd"
   xmlns:inkscape="http://www.inkscape.org/namespaces/inkscape"
   height="40px"
   viewBox="0 -960 960 960"
   width="40px"
   fill="#FFFFFF"
   version="1.1"
   id="svg4"
   sodipodi:docname="boots_32px.svg"
   inkscape:version="1.0 (4035a4fb49, 2020-05-01)">
  <metadata
     id="metadata10">
    <rdf:RDF>
      <cc:Work
         rdf:about="">
        <dc:format>image/svg+xml</dc:format>
        <dc:type
           rdf:resource="http://purl.org/dc/dcmitype/StillImage" />
      </cc:Work>
    </rdf:RDF>
  </metadata>
  <defs
     id="defs8" />
  <sodipodi:namedview
     inkscape:document-rotation="0"
     pagecolor="#ffffff"
     bordercolor="#666666"
     borderopacity="1"
     objecttolerance="10"
     gridtolerance="10"
     guidetolerance="10"
     inkscape:pageopacity="0"
     inkscape:pageshadow="2"
     inkscape:window-width="1920"
     inkscape:window-height="1027"
     id="namedview6"
     showgrid="false"
     inkscape:zoom="15.255829"
     inkscape:cx="20.654114"
     inkscape:cy="25.682635"
     inkscape:window-x="0"
     inkscape:window-y="0"
     inkscape:window-maximized="1"
     inkscape:current-layer="svg4" />
  <path
     id="path2"
     style="fill:#ffffff;stroke-width:1.33208"
     d="m 63.704748,-904.42582 v 788.38155 H 223.95704 v 1.12109 h 89.01515 v -1.12109 h 356.12315 v 1.12109 h 89.01515 v -1.12109 h 160.25229 v -149.29297 c 0,-45.99993 -13.63426,-87.05568 -40.93946,-123.25861 -27.29632,-36.2029 -63.21757,-60.53239 -107.7321,-72.93368 l -149.10976,-41.16926 c -23.59269,-7.31674 -45.14912,-18.29658 -64.6643,-32.94784 -19.50626,-14.64238 -35.19765,-32.75935 -47.07411,-54.31101 H 353.91166 c -5.92938,0 -11.07302,-2.23525 -15.52449,-6.66428 -4.45142,-4.42904 -6.69802,-9.60023 -6.69802,-15.50854 0,-5.90833 2.2466,-11.07952 6.69802,-15.50853 4.45147,-4.42904 9.59511,-6.60205 15.52449,-6.60205 h 139.78255 v -62.03412 H 353.91166 c -5.92938,0 -11.07302,-2.17302 -15.52449,-6.60205 -4.45142,-4.429 -6.69802,-9.60019 -6.69802,-15.50852 0,-5.90831 2.2466,-11.07948 6.69802,-15.50853 4.45147,-4.42905 9.59511,-6.66431 15.52449,-6.66431 h 137.15339 v -163.86725 z" />
</svg>
