<?xml version="1.0" encoding="UTF-8" standalone="no"?>
<svg
   sodipodi:docname="faces_cry.svg"
   inkscape:version="1.2.2 (732a01da63, 2022-12-09)"
   id="svg8"
   version="1.1"
   viewBox="0 0 33.866666 33.866668"
   height="128"
   width="128"
   xmlns:inkscape="http://www.inkscape.org/namespaces/inkscape"
   xmlns:sodipodi="http://sodipodi.sourceforge.net/DTD/sodipodi-0.dtd"
   xmlns="http://www.w3.org/2000/svg"
   xmlns:svg="http://www.w3.org/2000/svg"
   xmlns:rdf="http://www.w3.org/1999/02/22-rdf-syntax-ns#"
   xmlns:cc="http://creativecommons.org/ns#"
   xmlns:dc="http://purl.org/dc/elements/1.1/">
  <defs
     id="defs2" />
  <sodipodi:namedview
     inkscape:window-maximized="1"
     inkscape:window-y="-8"
     inkscape:window-x="-8"
     inkscape:window-height="1017"
     inkscape:window-width="1920"
     inkscape:snap-text-baseline="true"
     inkscape:snap-center="true"
     inkscape:snap-object-midpoints="true"
     inkscape:snap-midpoints="true"
     inkscape:snap-smooth-nodes="true"
     inkscape:snap-intersection-paths="true"
     inkscape:object-paths="true"
     inkscape:snap-global="false"
     inkscape:snap-bbox-midpoints="true"
     inkscape:snap-bbox-edge-midpoints="true"
     inkscape:bbox-nodes="true"
     inkscape:bbox-paths="true"
     inkscape:snap-bbox="true"
     inkscape:pagecheckerboard="true"
     units="px"
     showgrid="false"
     inkscape:document-rotation="0"
     inkscape:current-layer="layer1"
     inkscape:document-units="mm"
     inkscape:cy="70.714286"
     inkscape:cx="48.75"
     inkscape:zoom="5.6"
     inkscape:pageshadow="2"
     inkscape:pageopacity="0.0"
     borderopacity="1.0"
     bordercolor="#666666"
     pagecolor="#ffffff"
     id="base"
     inkscape:showpageshadow="2"
     inkscape:deskcolor="#d1d1d1" />
  <metadata
     id="metadata5">
    <rdf:RDF>
      <cc:Work
         rdf:about="">
        <dc:format>image/svg+xml</dc:format>
        <dc:type
           rdf:resource="http://purl.org/dc/dcmitype/StillImage" />
      </cc:Work>
    </rdf:RDF>
  </metadata>
  <g
     id="layer1"
     inkscape:groupmode="layer"
     inkscape:label="Layer 1">
    <g
       style="opacity:0.996;stroke:#ff0000;stroke-width:1;stroke-miterlimit:4;stroke-dasharray:none"
       transform="matrix(0.26458333,0,0,0.26458333,0.46276189,-0.427573)"
       id="g934">
      <path
         id="path938"
         d="m 87.250002,105.20117 -0.02539,-0.9707 C 86.867327,90.704246 75.778988,79.906743 62.24805,79.908203 48.719468,79.910203 37.63457,90.706602 37.277347,104.23047 l -0.02539,0.9707 h 7.423828 v -3.80469 c 0.416588,-7.299111 8.025392,-13.28544 17.572266,-13.287107 9.389159,-0.0011 16.99355,5.804674 17.589844,13.001957 l 0.01953,0.23437 v 0.0879 3.76758 z"
         style="color:#000000;font-style:normal;font-variant:normal;font-weight:normal;font-stretch:normal;font-size:medium;line-height:normal;font-family:sans-serif;font-variant-ligatures:normal;font-variant-position:normal;font-variant-caps:normal;font-variant-numeric:normal;font-variant-alternates:normal;font-variant-east-asian:normal;font-feature-settings:normal;font-variation-settings:normal;text-indent:0;text-align:start;text-decoration:none;text-decoration-line:none;text-decoration-style:solid;text-decoration-color:#000000;letter-spacing:normal;word-spacing:normal;text-transform:none;writing-mode:lr-tb;direction:ltr;text-orientation:mixed;dominant-baseline:auto;baseline-shift:baseline;text-anchor:start;white-space:normal;shape-padding:0;shape-margin:0;inline-size:0;clip-rule:nonzero;display:inline;overflow:visible;visibility:visible;isolation:auto;mix-blend-mode:normal;color-interpolation:sRGB;color-interpolation-filters:linearRGB;solid-color:#000000;solid-opacity:1;vector-effect:none;fill:#000000;fill-opacity:1;fill-rule:nonzero;stroke:#ffffff;stroke-width:1.88976;stroke-linecap:butt;stroke-linejoin:miter;stroke-miterlimit:4;stroke-dasharray:none;stroke-dashoffset:0;stroke-opacity:1;color-rendering:auto;image-rendering:auto;shape-rendering:auto;text-rendering:auto;enable-background:accumulate;stop-color:#000000;stop-opacity:1" />
      <path
         id="path672"
         d="m 87.250002,105.20117 -0.02539,-0.9707 C 86.867327,90.704246 75.778988,79.906743 62.24805,79.908203 48.719468,79.910203 37.63457,90.706602 37.277347,104.23047 l -0.02539,0.9707 h 7.423828 v -3.80469 c 0.416588,-7.299111 8.025392,-13.28544 17.572266,-13.287107 9.389159,-0.0011 16.99355,5.804674 17.589844,13.001957 l 0.01953,0.23437 v 0.0879 3.76758 z"
         style="color:#000000;font-style:normal;font-variant:normal;font-weight:normal;font-stretch:normal;font-size:medium;line-height:normal;font-family:sans-serif;font-variant-ligatures:normal;font-variant-position:normal;font-variant-caps:normal;font-variant-numeric:normal;font-variant-alternates:normal;font-variant-east-asian:normal;font-feature-settings:normal;font-variation-settings:normal;text-indent:0;text-align:start;text-decoration:none;text-decoration-line:none;text-decoration-style:solid;text-decoration-color:#000000;letter-spacing:normal;word-spacing:normal;text-transform:none;writing-mode:lr-tb;direction:ltr;text-orientation:mixed;dominant-baseline:auto;baseline-shift:baseline;text-anchor:start;white-space:normal;shape-padding:0;shape-margin:0;inline-size:0;clip-rule:nonzero;display:inline;overflow:visible;visibility:visible;isolation:auto;mix-blend-mode:normal;color-interpolation:sRGB;color-interpolation-filters:linearRGB;solid-color:#000000;solid-opacity:1;vector-effect:none;fill:#000000;fill-opacity:1;fill-rule:nonzero;stroke:#ffffff;stroke-width:1.88976;stroke-linecap:butt;stroke-linejoin:miter;stroke-miterlimit:4;stroke-dasharray:none;stroke-dashoffset:0;stroke-opacity:1;color-rendering:auto;image-rendering:auto;shape-rendering:auto;text-rendering:auto;enable-background:accumulate;stop-color:#000000;stop-opacity:1" />
    </g>
    <g
       id="g3025"
       transform="translate(0.75348213)">
      <path
         id="circle847"
         style="opacity:0.996;fill:#ffffff;stroke:none;stroke-width:0.3"
         d="m 22.661666,7.4765462 a 6.3363447,6.3363447 0 0 0 -3.587895,5.7092118 6.3363447,6.3363447 0 0 0 6.336564,6.336565 6.3363447,6.3363447 0 0 0 6.336048,-6.336565 6.3363447,6.3363447 0 0 0 -2.303736,-4.886523 3.612325,2.8348212 0 0 1 -3.218408,1.5518433 3.612325,2.8348212 0 0 1 -3.562573,-2.3745321 z" />
      <path
         id="circle849"
         style="opacity:0.996;fill:#000000;stroke:none;stroke-width:0.27036"
         d="m 22.873539,8.0718587 a 5.7103233,5.7103233 0 0 0 -3.173449,5.1138993 5.7103233,5.7103233 0 0 0 5.710245,5.710246 5.7103233,5.7103233 0 0 0 5.710246,-5.710246 5.7103233,5.7103233 0 0 0 -2.074292,-4.4023148 3.612325,2.8348212 0 0 1 -2.82205,1.0676351 3.612325,2.8348212 0 0 1 -3.3507,-1.7792196 z" />
      <path
         id="circle851"
         style="opacity:0.996;fill:#ffffff;stroke:none;stroke-width:0.223802"
         d="m 23.491073,8.8697428 a 4.7269568,4.7269568 0 0 0 -2.807581,4.3160152 4.7269568,4.7269568 0 0 0 4.726843,4.726844 4.7269568,4.7269568 0 0 0 4.726844,-4.726844 4.7269568,4.7269568 0 0 0 -1.92288,-3.8049352 3.612325,2.8348212 0 0 1 -1.99006,0.4702555 3.612325,2.8348212 0 0 1 -2.733166,-0.9813355 z" />
      <circle
         style="opacity:0.996;fill:#000000;stroke:none;stroke-width:0.172851"
         id="circle853"
         cx="25.410233"
         cy="13.185802"
         r="3.6508071" />
      <circle
         style="opacity:0.996;fill:#ffffff;stroke:none;stroke-width:0.236606"
         id="circle890"
         cx="24.014135"
         cy="11.745372"
         r="1.1660548" />
      <rect
         style="fill:#8bc5ff;fill-opacity:1;stroke:none;stroke-width:2;stroke-dashoffset:148.535"
         id="rect744"
         width="8.4858074"
         height="4.07586"
         x="23.260771"
         y="15.668675"
         rx="2.1047475"
         ry="2.1047475" />
      <g
         style="opacity:0.996;stroke:#ff0000;stroke-width:1;stroke-miterlimit:4;stroke-dasharray:none"
         transform="matrix(-0.25556787,-0.0684792,0.0684792,-0.25556787,35.287129,35.111652)"
         id="g1308">
        <path
           id="path1304"
           d="m 87.250002,105.20117 -0.02539,-0.9707 C 86.867327,90.704246 75.778988,79.906743 62.24805,79.908203 48.719468,79.910203 37.63457,90.706602 37.277347,104.23047 l -0.02539,0.9707 h 7.423828 v -3.80469 c 0.416588,-7.299111 8.025392,-13.28544 17.572266,-13.287107 9.389159,-0.0011 16.99355,5.804674 17.589844,13.001957 l 0.01953,0.23437 v 0.0879 3.76758 z"
           style="color:#000000;font-style:normal;font-variant:normal;font-weight:normal;font-stretch:normal;font-size:medium;line-height:normal;font-family:sans-serif;font-variant-ligatures:normal;font-variant-position:normal;font-variant-caps:normal;font-variant-numeric:normal;font-variant-alternates:normal;font-variant-east-asian:normal;font-feature-settings:normal;font-variation-settings:normal;text-indent:0;text-align:start;text-decoration:none;text-decoration-line:none;text-decoration-style:solid;text-decoration-color:#000000;letter-spacing:normal;word-spacing:normal;text-transform:none;writing-mode:lr-tb;direction:ltr;text-orientation:mixed;dominant-baseline:auto;baseline-shift:baseline;text-anchor:start;white-space:normal;shape-padding:0;shape-margin:0;inline-size:0;clip-rule:nonzero;display:inline;overflow:visible;visibility:visible;isolation:auto;mix-blend-mode:normal;color-interpolation:sRGB;color-interpolation-filters:linearRGB;solid-color:#000000;solid-opacity:1;vector-effect:none;fill:#000000;fill-opacity:1;fill-rule:nonzero;stroke:#ffffff;stroke-width:1.88976;stroke-linecap:butt;stroke-linejoin:miter;stroke-miterlimit:4;stroke-dasharray:none;stroke-dashoffset:0;stroke-opacity:1;color-rendering:auto;image-rendering:auto;shape-rendering:auto;text-rendering:auto;enable-background:accumulate;stop-color:#000000;stop-opacity:1" />
        <path
           id="path1306"
           d="m 87.250002,105.20117 -0.02539,-0.9707 C 86.867327,90.704246 75.778988,79.906743 62.24805,79.908203 48.719468,79.910203 37.63457,90.706602 37.277347,104.23047 l -0.02539,0.9707 h 7.423828 v -3.80469 c 0.416588,-7.299111 8.025392,-13.28544 17.572266,-13.287107 9.389159,-0.0011 16.99355,5.804674 17.589844,13.001957 l 0.01953,0.23437 v 0.0879 3.76758 z"
           style="color:#000000;font-style:normal;font-variant:normal;font-weight:normal;font-stretch:normal;font-size:medium;line-height:normal;font-family:sans-serif;font-variant-ligatures:normal;font-variant-position:normal;font-variant-caps:normal;font-variant-numeric:normal;font-variant-alternates:normal;font-variant-east-asian:normal;font-feature-settings:normal;font-variation-settings:normal;text-indent:0;text-align:start;text-decoration:none;text-decoration-line:none;text-decoration-style:solid;text-decoration-color:#000000;letter-spacing:normal;word-spacing:normal;text-transform:none;writing-mode:lr-tb;direction:ltr;text-orientation:mixed;dominant-baseline:auto;baseline-shift:baseline;text-anchor:start;white-space:normal;shape-padding:0;shape-margin:0;inline-size:0;clip-rule:nonzero;display:inline;overflow:visible;visibility:visible;isolation:auto;mix-blend-mode:normal;color-interpolation:sRGB;color-interpolation-filters:linearRGB;solid-color:#000000;solid-opacity:1;vector-effect:none;fill:#000000;fill-opacity:1;fill-rule:nonzero;stroke:#ffffff;stroke-width:1.88976;stroke-linecap:butt;stroke-linejoin:miter;stroke-miterlimit:4;stroke-dasharray:none;stroke-dashoffset:0;stroke-opacity:1;color-rendering:auto;image-rendering:auto;shape-rendering:auto;text-rendering:auto;enable-background:accumulate;stop-color:#000000;stop-opacity:1" />
      </g>
    </g>
    <g
       id="g3036">
      <path
         id="path833"
         style="opacity:0.996;fill:#ffffff;stroke:none;stroke-width:0.3"
         d="M 11.158492 8.1023478 A 4.2051029 2.5891733 0 0 1 7.045048 10.156486 A 4.2051029 2.5891733 0 0 1 3.1212565 8.4945719 A 6.3363447 6.3363447 0 0 0 1.0402466 13.185758 A 6.3363447 6.3363447 0 0 0 7.3768107 19.522323 A 6.3363447 6.3363447 0 0 0 13.712858 13.185758 A 6.3363447 6.3363447 0 0 0 11.158492 8.1023478 z " />
      <path
         id="circle835"
         style="opacity:0.996;fill:#000000;stroke:none;stroke-width:0.27036"
         d="M 10.855668 8.6583862 A 4.2051029 2.5891733 0 0 1 7.045048 10.156486 A 4.2051029 2.5891733 0 0 1 3.5201986 8.9761963 A 5.7103233 5.7103233 0 0 0 1.6660482 13.185758 A 5.7103233 5.7103233 0 0 0 7.3768107 18.896004 A 5.7103233 5.7103233 0 0 0 13.087056 13.185758 A 5.7103233 5.7103233 0 0 0 10.855668 8.6583862 z " />
      <path
         id="circle837"
         style="opacity:0.996;fill:#ffffff;stroke:none;stroke-width:0.223802"
         d="M 10.117729 9.3348307 A 4.2051029 2.5891733 0 0 1 7.045048 10.156486 A 4.2051029 2.5891733 0 0 1 4.3537394 9.5554891 A 4.7269568 4.7269568 0 0 0 2.6494507 13.185758 A 4.7269568 4.7269568 0 0 0 7.3768107 17.912602 A 4.7269568 4.7269568 0 0 0 12.103654 13.185758 A 4.7269568 4.7269568 0 0 0 10.117729 9.3348307 z " />
      <circle
         r="3.6508071"
         cy="13.185802"
         cx="7.3766131"
         id="circle839"
         style="opacity:0.996;fill:#000000;stroke:none;stroke-width:0.172851" />
      <circle
         r="1.1660548"
         cy="11.745372"
         cx="5.878787"
         id="path888"
         style="opacity:0.996;fill:#ffffff;stroke:none;stroke-width:0.236606" />
      <rect
         style="fill:#8bc5ff;stroke:none;stroke-width:2;stroke-dashoffset:148.535;fill-opacity:1"
         id="rect746"
         width="8.4858074"
         height="4.07586"
         x="1.0402687"
         y="15.668675"
         rx="2.1047475"
         ry="2.1047475" />
      <g
         style="opacity:0.996;stroke:#ff0000;stroke-width:1;stroke-miterlimit:4;stroke-dasharray:none"
         transform="matrix(-0.25556787,0.06847921,-0.06847921,-0.25556787,30.068073,26.870339)"
         id="g1378">
        <path
           id="path1374"
           d="m 87.250002,105.20117 -0.02539,-0.9707 C 86.867327,90.704246 75.778988,79.906743 62.24805,79.908203 48.719468,79.910203 37.63457,90.706602 37.277347,104.23047 l -0.02539,0.9707 h 7.423828 v -3.80469 c 0.416588,-7.299111 8.025392,-13.28544 17.572266,-13.287107 9.389159,-0.0011 16.99355,5.804674 17.589844,13.001957 l 0.01953,0.23437 v 0.0879 3.76758 z"
           style="color:#000000;font-style:normal;font-variant:normal;font-weight:normal;font-stretch:normal;font-size:medium;line-height:normal;font-family:sans-serif;font-variant-ligatures:normal;font-variant-position:normal;font-variant-caps:normal;font-variant-numeric:normal;font-variant-alternates:normal;font-variant-east-asian:normal;font-feature-settings:normal;font-variation-settings:normal;text-indent:0;text-align:start;text-decoration:none;text-decoration-line:none;text-decoration-style:solid;text-decoration-color:#000000;letter-spacing:normal;word-spacing:normal;text-transform:none;writing-mode:lr-tb;direction:ltr;text-orientation:mixed;dominant-baseline:auto;baseline-shift:baseline;text-anchor:start;white-space:normal;shape-padding:0;shape-margin:0;inline-size:0;clip-rule:nonzero;display:inline;overflow:visible;visibility:visible;isolation:auto;mix-blend-mode:normal;color-interpolation:sRGB;color-interpolation-filters:linearRGB;solid-color:#000000;solid-opacity:1;vector-effect:none;fill:#000000;fill-opacity:1;fill-rule:nonzero;stroke:#ffffff;stroke-width:1.88976;stroke-linecap:butt;stroke-linejoin:miter;stroke-miterlimit:4;stroke-dasharray:none;stroke-dashoffset:0;stroke-opacity:1;color-rendering:auto;image-rendering:auto;shape-rendering:auto;text-rendering:auto;enable-background:accumulate;stop-color:#000000;stop-opacity:1" />
        <path
           id="path1376"
           d="m 87.250002,105.20117 -0.02539,-0.9707 C 86.867327,90.704246 75.778988,79.906743 62.24805,79.908203 48.719468,79.910203 37.63457,90.706602 37.277347,104.23047 l -0.02539,0.9707 h 7.423828 v -3.80469 c 0.416588,-7.299111 8.025392,-13.28544 17.572266,-13.287107 9.389159,-0.0011 16.99355,5.804674 17.589844,13.001957 l 0.01953,0.23437 v 0.0879 3.76758 z"
           style="color:#000000;font-style:normal;font-variant:normal;font-weight:normal;font-stretch:normal;font-size:medium;line-height:normal;font-family:sans-serif;font-variant-ligatures:normal;font-variant-position:normal;font-variant-caps:normal;font-variant-numeric:normal;font-variant-alternates:normal;font-variant-east-asian:normal;font-feature-settings:normal;font-variation-settings:normal;text-indent:0;text-align:start;text-decoration:none;text-decoration-line:none;text-decoration-style:solid;text-decoration-color:#000000;letter-spacing:normal;word-spacing:normal;text-transform:none;writing-mode:lr-tb;direction:ltr;text-orientation:mixed;dominant-baseline:auto;baseline-shift:baseline;text-anchor:start;white-space:normal;shape-padding:0;shape-margin:0;inline-size:0;clip-rule:nonzero;display:inline;overflow:visible;visibility:visible;isolation:auto;mix-blend-mode:normal;color-interpolation:sRGB;color-interpolation-filters:linearRGB;solid-color:#000000;solid-opacity:1;vector-effect:none;fill:#000000;fill-opacity:1;fill-rule:nonzero;stroke:#ffffff;stroke-width:1.88976;stroke-linecap:butt;stroke-linejoin:miter;stroke-miterlimit:4;stroke-dasharray:none;stroke-dashoffset:0;stroke-opacity:1;color-rendering:auto;image-rendering:auto;shape-rendering:auto;text-rendering:auto;enable-background:accumulate;stop-color:#000000;stop-opacity:1" />
      </g>
    </g>
  </g>
</svg>
